<svg width="116" height="116" viewBox="0 0 116 116" fill="none" xmlns="http://www.w3.org/2000/svg">
<rect opacity="0.07" width="115.11" height="115.11" rx="40" fill="#2383E2"/>
<path d="M50.5 58L55.5 63L65.5 52.9999M47.8226 38.9877L44.0388 38.8108C41.0964 38.6733 38.6733 41.0964 38.8108 44.0388L38.9877 47.8226C39.0572 49.3096 38.4604 50.7503 37.3597 51.7527L34.5592 54.3032C32.3813 56.2866 32.3813 59.7133 34.5592 61.6967L37.3597 64.2472C38.4604 65.2496 39.0572 66.6903 38.9877 68.1773L38.8108 71.9611C38.6733 74.9035 41.0964 77.3266 44.0388 77.1891L47.8226 77.0122C49.3096 76.9427 50.7503 77.5395 51.7527 78.6402L54.3032 81.4407C56.2866 83.6186 59.7133 83.6186 61.6967 81.4407L64.2472 78.6402C65.2496 77.5395 66.6903 76.9427 68.1773 77.0122L71.9611 77.1891C74.9035 77.3266 77.3266 74.9035 77.1891 71.9611L77.0122 68.1773C76.9427 66.6903 77.5395 65.2496 78.6402 64.2472L81.4407 61.6967C83.6186 59.7133 83.6186 56.2866 81.4407 54.3032L78.6402 51.7527C77.5395 50.7503 76.9427 49.3096 77.0122 47.8226L77.1891 44.0388C77.3266 41.0964 74.9035 38.6733 71.9611 38.8108L68.1773 38.9877C66.6903 39.0572 65.2496 38.4604 64.2472 37.3597L61.6967 34.5592C59.7133 32.3813 56.2866 32.3813 54.3032 34.5592L51.7527 37.3597C50.7503 38.4604 49.3096 39.0572 47.8226 38.9877Z" stroke="#2383E2" stroke-width="4" stroke-linecap="round" stroke-linejoin="round"/>
</svg>
