<svg width="20" height="20" viewBox="0 0 20 20" fill="none" xmlns="http://www.w3.org/2000/svg">
<path d="M6.66659 8.33335L13.3333 8.33335M6.66659 15H13.3333M6.66659 11.6667H9.99992M13.3333 1.66669V4.50002C13.3333 4.77616 13.5571 5.00002 13.8333 5.00002H16.6666M3.33325 2.16669V17.8334C3.33325 18.1095 3.55711 18.3334 3.83325 18.3334H16.1666C16.4427 18.3334 16.6666 18.1095 16.6666 17.8334V4.79046C16.6666 4.65785 16.6139 4.53068 16.5201 4.43691L13.8964 1.81313C13.8026 1.71937 13.6754 1.66669 13.5428 1.66669H3.83325C3.55711 1.66669 3.33325 1.89054 3.33325 2.16669Z" stroke="#585861" stroke-width="1.75" stroke-linecap="round" stroke-linejoin="round"/>
</svg>
