<svg width="116" height="116" viewBox="0 0 116 116" fill="none" xmlns="http://www.w3.org/2000/svg">
<rect opacity="0.07" width="115.11" height="115.11" rx="40" fill="#26A69A"/>
<path d="M50.5 43V73C50.5 77.1421 47.1421 80.5 43 80.5C38.8579 80.5 35.5 77.1421 35.5 73C35.5 68.8579 38.8579 65.5 43 65.5H73C77.1421 65.5 80.5 68.8579 80.5 73C80.5 77.1421 77.1421 80.5 73 80.5C68.8579 80.5 65.5 77.1421 65.5 73V43C65.5 38.8579 68.8579 35.5 73 35.5C77.1421 35.5 80.5 38.8579 80.5 43C80.5 47.1421 77.1421 50.5 73 50.5H43C38.8579 50.5 35.5 47.1421 35.5 43C35.5 38.8579 38.8579 35.5 43 35.5C47.1421 35.5 50.5 38.8579 50.5 43Z" stroke="#26A69A" stroke-width="4" stroke-linecap="round" stroke-linejoin="round"/>
</svg>
