<svg width="116" height="116" viewBox="0 0 116 116" fill="none" xmlns="http://www.w3.org/2000/svg">
<rect opacity="0.07" width="115.11" height="115.11" rx="40" fill="#26A69A"/>
<path d="M63 82.5C64.1046 82.5 65 81.6046 65 80.5C65 79.3954 64.1046 78.5 63 78.5V80.5V82.5ZM33 43.5C31.8954 43.5 31 44.3954 31 45.5C31 46.6046 31.8954 47.5 33 47.5V45.5V43.5ZM83 47.5C84.1046 47.5 85 46.6046 85 45.5C85 44.3954 84.1046 43.5 83 43.5V45.5V47.5ZM39.0134 39.1871C38.2745 40.0081 38.3411 41.2727 39.1621 42.0116C39.9831 42.7505 41.2477 42.6839 41.9866 41.8629L40.5 40.525L39.0134 39.1871ZM42.0116 41.8351C42.7505 41.0141 42.6839 39.7495 41.8629 39.0106C41.0419 38.2717 39.7773 38.3383 39.0384 39.1593L40.525 40.4972L42.0116 41.8351ZM46.5134 39.1871C45.7745 40.0081 45.841 41.2726 46.6621 42.0116C47.4831 42.7505 48.7476 42.684 49.4866 41.8629L48 40.525L46.5134 39.1871ZM49.5116 41.8352C50.2505 41.0142 50.184 39.7496 49.3629 39.0106C48.5419 38.2717 47.2774 38.3383 46.5384 39.1593L48.025 40.4972L49.5116 41.8352ZM54.0134 39.1871C53.2745 40.0081 53.341 41.2726 54.1621 42.0116C54.9831 42.7505 56.2476 42.684 56.9866 41.8629L55.5 40.525L54.0134 39.1871ZM57.0116 41.8352C57.7505 41.0142 57.684 39.7496 56.8629 39.0106C56.0419 38.2717 54.7774 38.3383 54.0384 39.1593L55.525 40.4972L57.0116 41.8352ZM83.0927 76.6646L83.3179 78.6518L83.0927 76.6646ZM83.2056 73.9128L82.1576 75.6162L83.2056 73.9128ZM76.6762 77.3919L76.4509 75.4046L75.3705 75.5271L74.8858 76.5005L76.6762 77.3919ZM73.7982 83.1726L72.0078 82.2813L72.0078 82.2813L73.7982 83.1726ZM71.1737 82.3376L73.1329 81.9355L71.1737 82.3376ZM68.0355 67.0476L69.9947 66.6455L68.0355 67.0476ZM69.911 65.7343L68.8631 67.4378L69.911 65.7343ZM33 40.5H31V75.5H33H35V40.5H33ZM78 35.5V33.5H38V35.5V37.5H78V35.5ZM38 80.5V82.5H63V80.5V78.5H38V80.5ZM83 65.5H85V40.5H83H81V65.5H83ZM78 35.5V37.5C79.6569 37.5 81 38.8431 81 40.5H83H85C85 36.634 81.866 33.5 78 33.5V35.5ZM33 75.5H31C31 79.366 34.134 82.5 38 82.5V80.5V78.5C36.3431 78.5 35 77.1569 35 75.5H33ZM33 40.5H35C35 38.8431 36.3431 37.5 38 37.5V35.5V33.5C34.134 33.5 31 36.634 31 40.5H33ZM33 45.5V47.5H83V45.5V43.5H33V45.5ZM40.5 40.525L41.9866 41.8629L42.0116 41.8351L40.525 40.4972L39.0384 39.1593L39.0134 39.1871L40.5 40.525ZM48 40.525L49.4866 41.8629L49.5116 41.8352L48.025 40.4972L46.5384 39.1593L46.5134 39.1871L48 40.525ZM55.5 40.525L56.9866 41.8629L57.0116 41.8352L55.525 40.4972L54.0384 39.1593L54.0134 39.1871L55.5 40.525ZM83.0927 76.6646L83.3179 78.6518C85.1611 78.4429 86.0333 76.9142 86.0872 75.6014C86.1392 74.3346 85.5138 72.9846 84.2535 72.2093L83.2056 73.9128L82.1576 75.6162C82.1319 75.6004 82.0858 75.5541 82.0906 75.4374C82.0933 75.3705 82.1182 75.2043 82.2672 75.0206C82.4382 74.8097 82.6763 74.6989 82.8674 74.6773L83.0927 76.6646ZM76.6762 77.3919L76.9015 79.3792L83.3179 78.6518L83.0927 76.6646L82.8674 74.6773L76.4509 75.4046L76.6762 77.3919ZM73.7982 83.1726L75.5885 84.064L78.4666 78.2833L76.6762 77.3919L74.8858 76.5005L72.0078 82.2813L73.7982 83.1726ZM71.1737 82.3376L69.2146 82.7397C69.512 84.1891 70.5668 85.2385 71.7749 85.6229C73.027 86.0214 74.7618 85.7245 75.5885 84.064L73.7982 83.1726L72.0078 82.2813C72.0935 82.1091 72.2791 81.9232 72.5357 81.8346C72.7592 81.7574 72.924 81.791 72.9878 81.8113C73.0991 81.8467 73.1268 81.9058 73.1329 81.9355L71.1737 82.3376ZM68.0355 67.0476L66.0764 67.4497L69.2146 82.7397L71.1737 82.3376L73.1329 81.9355L69.9947 66.6455L68.0355 67.0476ZM69.911 65.7343L70.9589 64.0309C69.8489 63.348 68.4481 63.2878 67.3425 64.062C66.2368 64.8361 65.8143 66.173 66.0764 67.4497L68.0355 67.0476L69.9947 66.6455C70.0104 66.7222 70.004 67.0815 69.6368 67.3386C69.2696 67.5957 68.9298 67.4789 68.8631 67.4378L69.911 65.7343ZM83.2056 73.9128L84.2535 72.2093L70.9589 64.0309L69.911 65.7343L68.8631 67.4378L82.1576 75.6162L83.2056 73.9128Z" fill="#26A69A"/>
</svg>
