<svg width="116" height="116" viewBox="0 0 116 116" fill="none" xmlns="http://www.w3.org/2000/svg">
<rect opacity="0.07" width="115.11" height="115.11" rx="40" fill="#26A69A"/>
<path d="M38.6775 73.8643C38.6775 73.8643 44.2501 66.75 58.0001 66.75C71.7501 66.75 77.3226 73.8643 77.3226 73.8643M33 58C33 44.1929 44.1929 33 58 33C71.8071 33 83 44.1929 83 58C83 71.8071 71.8071 83 58 83C44.1929 83 33 71.8071 33 58ZM65.5 50.5C65.5 54.6421 62.1421 58 58 58C53.8579 58 50.5 54.6421 50.5 50.5C50.5 46.3579 53.8579 43 58 43C62.1421 43 65.5 46.3579 65.5 50.5Z" stroke="#26A69A" stroke-width="4" stroke-linecap="round" stroke-linejoin="round"/>
</svg>
