<svg width="116" height="116" viewBox="0 0 116 116" fill="none" xmlns="http://www.w3.org/2000/svg">
<rect opacity="0.07" width="115.11" height="115.11" rx="40" fill="#26A69A"/>
<path d="M53 50.525L53.025 50.4972M63 50.525L63.025 50.4972M53 60.525L53.025 60.4972M63 60.525L63.025 60.4972M53 70.525L53.025 70.4972M63 70.525L63.025 70.4972M43 42V79C43 79.8284 43.6716 80.5 44.5 80.5H71.5C72.3284 80.5 73 79.8284 73 79V37C73 36.1716 72.3284 35.5 71.5 35.5H59.5C58.6716 35.5 58 36.1716 58 37V40.5H44.5C43.6716 40.5 43 41.1716 43 42Z" stroke="#26A69A" stroke-width="4" stroke-linecap="round" stroke-linejoin="round"/>
</svg>
