<svg width="250" height="46" viewBox="0 0 250 46" fill="none" xmlns="http://www.w3.org/2000/svg">
<mask id="mask0_56_45" style="mask-type:alpha" maskUnits="userSpaceOnUse" x="1" y="3" width="44" height="40">
<path d="M29.4869 7.53653L43.1536 31.6368C46.4193 37.3937 40.5252 43.9686 34.125 41.7113L25.5433 38.6852C23.9013 38.1061 22.0985 38.1061 20.4564 38.6852L11.8748 41.7113C5.47457 43.9686 -0.418798 37.3937 2.84614 31.6368L16.5147 7.53653C19.3149 2.59883 26.6867 2.59883 29.4869 7.53653Z" fill="#D9D9D9" stroke="black"/>
</mask>
<g mask="url(#mask0_56_45)">
<path opacity="0.75" d="M61.0077 5.02778C69.9366 16.0793 73.7638 37.2549 69.436 52.7117C65.1655 68.2455 52.6902 78.0607 40.8761 83.6251C29.1212 89.1122 17.9739 90.3486 8.38004 84.8615C-1.21436 79.2971 -9.31096 67.0091 -13.2482 51.0116C-17.2413 35.0137 -17.0747 15.3838 -10.1427 4.95048C-3.21053 -5.48279 10.4876 -6.71932 24.2965 -6.87389C38.159 -6.95117 52.1342 -6.02377 61.0077 5.02778Z" fill="url(#paint0_linear_56_45)"/>
<path opacity="0.75" d="M37.1079 62.7502C29.1322 64.479 19.1172 60.692 14.6232 54.1262C10.0774 47.5668 11.0786 38.1982 13.5241 30.3549C15.9771 22.5625 19.8966 16.2662 25.8997 12.6508C31.9342 9.05647 40.0744 8.11366 48.0576 10.4143C56.0611 12.6855 63.878 18.1788 65.3206 24.7552C66.7632 31.3315 61.8351 38.9907 56.4268 46.4117C50.9668 53.8405 45.0597 61.0523 37.1079 62.7502Z" fill="url(#paint1_linear_56_45)"/>
<path opacity="0.75" d="M89.0393 31.6467C94.0856 38.3259 94.4735 49.229 89.7819 56.1716C85.1217 63.1602 75.3431 66.1808 66.4899 67.2168C57.6811 68.2234 49.7607 67.238 43.6487 63.1858C37.5458 59.0955 33.2162 51.9302 32.1911 43.544C31.129 35.15 33.364 25.5727 39.3338 21.4587C45.3037 17.3446 55.0083 18.6941 64.6724 20.5884C74.3697 22.5287 84.0337 24.9758 89.0393 31.6467Z" fill="url(#paint2_linear_56_45)"/>
</g>
<path d="M66 35L58.704 12.504H62.992L68.4 29.816H66.96L72.272 12.504H75.504L80.816 29.816H79.344L84.784 12.504H89.072L81.744 35H78.512L73.168 17.72H74.576L69.264 35H66ZM101.506 35V26.136C101.506 25.2187 101.218 24.472 100.642 23.896C100.066 23.32 99.3193 23.032 98.402 23.032C97.8047 23.032 97.2713 23.16 96.802 23.416C96.3327 23.672 95.9593 24.0347 95.682 24.504C95.426 24.9733 95.298 25.5173 95.298 26.136L93.666 25.304C93.666 24.088 93.922 23.032 94.434 22.136C94.946 21.2187 95.65 20.504 96.546 19.992C97.4633 19.48 98.5087 19.224 99.682 19.224C100.855 19.224 101.89 19.48 102.786 19.992C103.703 20.504 104.418 21.208 104.93 22.104C105.442 23 105.698 24.0347 105.698 25.208V35H101.506ZM91.106 35V11.864H95.298V35H91.106ZM115.967 35.32C114.345 35.32 112.905 34.9787 111.647 34.296C110.388 33.592 109.385 32.632 108.639 31.416C107.913 30.2 107.551 28.8133 107.551 27.256C107.551 25.72 107.903 24.3547 108.607 23.16C109.332 21.944 110.313 20.984 111.551 20.28C112.788 19.5547 114.164 19.192 115.679 19.192C117.172 19.192 118.484 19.5333 119.615 20.216C120.767 20.8773 121.663 21.7947 122.303 22.968C122.964 24.12 123.295 25.432 123.295 26.904C123.295 27.1813 123.273 27.4693 123.231 27.768C123.209 28.0453 123.156 28.3653 123.071 28.728L110.079 28.76V25.624L121.119 25.592L119.423 26.904C119.38 25.9867 119.209 25.2187 118.911 24.6C118.633 23.9813 118.217 23.512 117.663 23.192C117.129 22.8507 116.468 22.68 115.679 22.68C114.847 22.68 114.121 22.872 113.503 23.256C112.884 23.6187 112.404 24.1413 112.063 24.824C111.743 25.4853 111.583 26.2747 111.583 27.192C111.583 28.1307 111.753 28.952 112.095 29.656C112.457 30.3387 112.969 30.872 113.631 31.256C114.292 31.6187 115.06 31.8 115.935 31.8C116.724 31.8 117.439 31.672 118.079 31.416C118.719 31.1387 119.273 30.7333 119.743 30.2L122.207 32.664C121.46 33.5387 120.543 34.2 119.455 34.648C118.388 35.096 117.225 35.32 115.967 35.32ZM125.387 35V19.544H129.579V35H125.387ZM129.579 26.456L127.947 25.368C128.139 23.4693 128.694 21.976 129.611 20.888C130.529 19.7787 131.851 19.224 133.579 19.224C134.326 19.224 134.998 19.352 135.595 19.608C136.193 19.8427 136.737 20.2373 137.227 20.792L134.603 23.8C134.369 23.544 134.081 23.352 133.739 23.224C133.419 23.096 133.046 23.032 132.619 23.032C131.723 23.032 130.987 23.32 130.411 23.896C129.857 24.4507 129.579 25.304 129.579 26.456ZM145.154 35.32C143.533 35.32 142.093 34.9787 140.834 34.296C139.576 33.592 138.573 32.632 137.826 31.416C137.101 30.2 136.738 28.8133 136.738 27.256C136.738 25.72 137.09 24.3547 137.794 23.16C138.52 21.944 139.501 20.984 140.738 20.28C141.976 19.5547 143.352 19.192 144.866 19.192C146.36 19.192 147.672 19.5333 148.802 20.216C149.954 20.8773 150.85 21.7947 151.49 22.968C152.152 24.12 152.482 25.432 152.482 26.904C152.482 27.1813 152.461 27.4693 152.418 27.768C152.397 28.0453 152.344 28.3653 152.258 28.728L139.266 28.76V25.624L150.306 25.592L148.61 26.904C148.568 25.9867 148.397 25.2187 148.098 24.6C147.821 23.9813 147.405 23.512 146.85 23.192C146.317 22.8507 145.656 22.68 144.866 22.68C144.034 22.68 143.309 22.872 142.69 23.256C142.072 23.6187 141.592 24.1413 141.25 24.824C140.93 25.4853 140.77 26.2747 140.77 27.192C140.77 28.1307 140.941 28.952 141.282 29.656C141.645 30.3387 142.157 30.872 142.818 31.256C143.48 31.6187 144.248 31.8 145.122 31.8C145.912 31.8 146.626 31.672 147.266 31.416C147.906 31.1387 148.461 30.7333 148.93 30.2L151.394 32.664C150.648 33.5387 149.73 34.2 148.642 34.648C147.576 35.096 146.413 35.32 145.154 35.32ZM161.039 35.32C159.631 35.32 158.361 34.968 157.231 34.264C156.1 33.56 155.215 32.6 154.575 31.384C153.935 30.168 153.615 28.8027 153.615 27.288C153.615 25.752 153.935 24.376 154.575 23.16C155.215 21.944 156.1 20.984 157.231 20.28C158.361 19.576 159.631 19.224 161.039 19.224C162.148 19.224 163.14 19.448 164.015 19.896C164.889 20.344 165.583 20.9733 166.095 21.784C166.628 22.5733 166.916 23.4693 166.959 24.472V30.04C166.916 31.064 166.628 31.9707 166.095 32.76C165.583 33.5493 164.889 34.1787 164.015 34.648C163.14 35.096 162.148 35.32 161.039 35.32ZM161.807 31.448C162.98 31.448 163.929 31.064 164.655 30.296C165.38 29.5067 165.743 28.4933 165.743 27.256C165.743 26.4453 165.572 25.7307 165.231 25.112C164.911 24.472 164.452 23.9813 163.855 23.64C163.279 23.2773 162.596 23.096 161.807 23.096C161.039 23.096 160.356 23.2773 159.759 23.64C159.183 23.9813 158.724 24.472 158.383 25.112C158.063 25.7307 157.903 26.4453 157.903 27.256C157.903 28.088 158.063 28.824 158.383 29.464C158.724 30.0827 159.183 30.5733 159.759 30.936C160.356 31.2773 161.039 31.448 161.807 31.448ZM165.519 35V30.84L166.191 27.064L165.519 23.352V19.544H169.679V35H165.519ZM181.463 35.32C180.354 35.32 179.351 35.0853 178.455 34.616C177.559 34.1467 176.845 33.5067 176.311 32.696C175.778 31.8853 175.49 30.9787 175.447 29.976V24.472C175.49 23.4693 175.778 22.5733 176.311 21.784C176.866 20.9733 177.591 20.344 178.487 19.896C179.383 19.448 180.375 19.224 181.463 19.224C182.893 19.224 184.173 19.576 185.303 20.28C186.434 20.984 187.319 21.944 187.959 23.16C188.621 24.376 188.951 25.752 188.951 27.288C188.951 28.8027 188.621 30.168 187.959 31.384C187.319 32.6 186.434 33.56 185.303 34.264C184.173 34.968 182.893 35.32 181.463 35.32ZM172.887 35V11.864H177.079V23.352L176.375 27.064L177.047 30.84V35H172.887ZM180.759 31.448C181.527 31.448 182.199 31.2773 182.775 30.936C183.373 30.5733 183.831 30.0827 184.151 29.464C184.493 28.824 184.663 28.088 184.663 27.256C184.663 26.4453 184.493 25.7307 184.151 25.112C183.831 24.472 183.373 23.9813 182.775 23.64C182.178 23.2773 181.495 23.096 180.727 23.096C179.959 23.096 179.277 23.2773 178.679 23.64C178.103 23.9813 177.645 24.472 177.303 25.112C176.983 25.7307 176.823 26.4453 176.823 27.256C176.823 28.088 176.983 28.824 177.303 29.464C177.645 30.0827 178.114 30.5733 178.711 30.936C179.309 31.2773 179.991 31.448 180.759 31.448ZM198.464 35.32C196.906 35.32 195.498 34.968 194.24 34.264C193.002 33.5387 192.01 32.568 191.264 31.352C190.538 30.1147 190.176 28.7387 190.176 27.224C190.176 25.7093 190.538 24.3547 191.264 23.16C191.989 21.944 192.981 20.984 194.24 20.28C195.498 19.5547 196.896 19.192 198.432 19.192C200.01 19.192 201.418 19.5547 202.656 20.28C203.914 20.984 204.906 21.944 205.632 23.16C206.357 24.3547 206.72 25.7093 206.72 27.224C206.72 28.7387 206.357 30.1147 205.632 31.352C204.906 32.568 203.914 33.5387 202.656 34.264C201.418 34.968 200.021 35.32 198.464 35.32ZM198.432 31.416C199.221 31.416 199.914 31.2453 200.512 30.904C201.13 30.5413 201.6 30.0507 201.92 29.432C202.261 28.792 202.432 28.0667 202.432 27.256C202.432 26.4453 202.261 25.7307 201.92 25.112C201.578 24.4933 201.109 24.0133 200.512 23.672C199.914 23.3093 199.221 23.128 198.432 23.128C197.664 23.128 196.981 23.3093 196.384 23.672C195.786 24.0133 195.317 24.4933 194.976 25.112C194.634 25.7307 194.464 26.4453 194.464 27.256C194.464 28.0667 194.634 28.792 194.976 29.432C195.317 30.0507 195.786 30.5413 196.384 30.904C196.981 31.2453 197.664 31.416 198.432 31.416ZM215.51 35.32C214.145 35.32 212.929 35.032 211.863 34.456C210.817 33.88 209.996 33.08 209.399 32.056C208.801 31.032 208.503 29.848 208.503 28.504V19.544H212.727V28.408C212.727 29.048 212.833 29.6027 213.047 30.072C213.26 30.52 213.58 30.8613 214.007 31.096C214.433 31.3307 214.935 31.448 215.51 31.448C216.385 31.448 217.068 31.1813 217.559 30.648C218.049 30.1147 218.295 29.368 218.295 28.408V19.544H222.487V28.504C222.487 29.8693 222.188 31.064 221.591 32.088C221.015 33.112 220.193 33.912 219.127 34.488C218.081 35.0427 216.876 35.32 215.51 35.32ZM227.597 35V13.112H231.789V35H227.597ZM223.981 23.224V19.544H235.405V23.224H223.981ZM242.262 35.352C241.387 35.352 240.523 35.2347 239.67 35C238.838 34.7653 238.07 34.4453 237.366 34.04C236.662 33.6133 236.054 33.1013 235.542 32.504L238.038 29.976C238.571 30.5733 239.19 31.0213 239.894 31.32C240.598 31.6187 241.376 31.768 242.23 31.768C242.912 31.768 243.424 31.672 243.766 31.48C244.128 31.288 244.31 31 244.31 30.616C244.31 30.1893 244.118 29.8587 243.734 29.624C243.371 29.3893 242.891 29.1973 242.294 29.048C241.696 28.8773 241.067 28.696 240.406 28.504C239.766 28.2907 239.147 28.024 238.55 27.704C237.952 27.3627 237.462 26.904 237.078 26.328C236.715 25.7307 236.534 24.9627 236.534 24.024C236.534 23.0427 236.768 22.1893 237.238 21.464C237.728 20.7387 238.422 20.1733 239.318 19.768C240.214 19.3627 241.27 19.16 242.486 19.16C243.766 19.16 244.918 19.384 245.942 19.832C246.987 20.28 247.851 20.952 248.534 21.848L246.006 24.376C245.536 23.8 245.003 23.384 244.406 23.128C243.83 22.872 243.2 22.744 242.518 22.744C241.899 22.744 241.419 22.84 241.078 23.032C240.758 23.224 240.598 23.4907 240.598 23.832C240.598 24.216 240.779 24.5147 241.142 24.728C241.526 24.9413 242.016 25.1333 242.614 25.304C243.211 25.4533 243.83 25.6347 244.47 25.848C245.131 26.04 245.75 26.3173 246.326 26.68C246.923 27.0427 247.403 27.5227 247.766 28.12C248.15 28.7173 248.342 29.4853 248.342 30.424C248.342 31.9387 247.798 33.144 246.71 34.04C245.622 34.9147 244.139 35.352 242.262 35.352Z" fill="#27272A"/>
<defs>
<linearGradient id="paint0_linear_56_45" x1="27.6675" y1="-6.87793" x2="27.6675" y2="88.4104" gradientUnits="userSpaceOnUse">
<stop offset="0.22" stop-color="#26A69A"/>
<stop offset="1" stop-color="#117C72"/>
</linearGradient>
<linearGradient id="paint1_linear_56_45" x1="38.5133" y1="9.1626" x2="38.5133" y2="63.1678" gradientUnits="userSpaceOnUse">
<stop stop-color="#C5EAE6"/>
<stop offset="1" stop-color="#61D0C6"/>
</linearGradient>
<linearGradient id="paint2_linear_56_45" x1="49.8333" y1="44.0834" x2="2.87499" y2="12.4584" gradientUnits="userSpaceOnUse">
<stop offset="0.265" stop-color="#26A69A"/>
<stop offset="0.54" stop-color="#117C72"/>
</linearGradient>
</defs>
</svg>
